<svg width="209" height="129" viewBox="0 0 209 129" fill="none" xmlns="http://www.w3.org/2000/svg">
<rect width="209" height="129" fill="#121214"/>
<path d="M50.0057 30.2614C49.733 27.5114 48.5625 25.375 46.4943 23.8523C44.4261 22.3295 41.6193 21.5682 38.0739 21.5682C35.6648 21.5682 33.6307 21.9091 31.9716 22.5909C30.3125 23.25 29.0398 24.1705 28.1534 25.3523C27.2898 26.5341 26.858 27.875 26.858 29.375C26.8125 30.625 27.0739 31.7159 27.642 32.6477C28.233 33.5795 29.0398 34.3864 30.0625 35.0682C31.0852 35.7273 32.267 36.3068 33.608 36.8068C34.9489 37.2841 36.3807 37.6932 37.9034 38.0341L44.1761 39.5341C47.2216 40.2159 50.017 41.125 52.5625 42.2614C55.108 43.3977 57.3125 44.7955 59.1761 46.4545C61.0398 48.1136 62.483 50.0682 63.5057 52.3182C64.5511 54.5682 65.0852 57.1477 65.108 60.0568C65.0852 64.3295 63.9943 68.0341 61.8352 71.1705C59.6989 74.2841 56.608 76.7045 52.5625 78.4318C48.5398 80.1364 43.6875 80.9886 38.0057 80.9886C32.3693 80.9886 27.4602 80.125 23.2784 78.3977C19.1193 76.6705 15.8693 74.1136 13.5284 70.7273C11.2102 67.3182 9.99432 63.1023 9.88068 58.0795H24.1648C24.3239 60.4205 24.9943 62.375 26.1761 63.9432C27.3807 65.4886 28.983 66.6591 30.983 67.4545C33.0057 68.2273 35.2898 68.6136 37.8352 68.6136C40.3352 68.6136 42.5057 68.25 44.3466 67.5227C46.2102 66.7955 47.6534 65.7841 48.6761 64.4886C49.6989 63.1932 50.2102 61.7045 50.2102 60.0227C50.2102 58.4545 49.7443 57.1364 48.8125 56.0682C47.9034 55 46.5625 54.0909 44.7898 53.3409C43.0398 52.5909 40.892 51.9091 38.3466 51.2955L30.7443 49.3864C24.858 47.9545 20.2102 45.7159 16.8011 42.6705C13.392 39.625 11.6989 35.5227 11.7216 30.3636C11.6989 26.1364 12.8239 22.4432 15.0966 19.2841C17.392 16.125 20.5398 13.6591 24.5398 11.8864C28.5398 10.1136 33.0852 9.22727 38.1761 9.22727C43.358 9.22727 47.8807 10.1136 51.7443 11.8864C55.6307 13.6591 58.6534 16.125 60.8125 19.2841C62.9716 22.4432 64.0852 26.1023 64.1534 30.2614H50.0057Z" fill="#0000FF"/>
<path d="M75.0369 80V10.1818H102.582C107.878 10.1818 112.389 11.1932 116.116 13.2159C119.844 15.2159 122.685 18 124.639 21.5682C126.616 25.1136 127.605 29.2045 127.605 33.8409C127.605 38.4773 126.605 42.5682 124.605 46.1136C122.605 49.6591 119.707 52.4205 115.912 54.3977C112.139 56.375 107.571 57.3636 102.207 57.3636H84.6506V45.5341H99.821C102.662 45.5341 105.003 45.0455 106.844 44.0682C108.707 43.0682 110.094 41.6932 111.003 39.9432C111.935 38.1705 112.401 36.1364 112.401 33.8409C112.401 31.5227 111.935 29.5 111.003 27.7727C110.094 26.0227 108.707 24.6705 106.844 23.7159C104.98 22.7386 102.616 22.25 99.7528 22.25H89.7983V80H75.0369Z" fill="#00FF00"/>
<path d="M149.227 80H133.409L157.511 10.1818H176.534L200.602 80H184.784L167.295 26.1364H166.75L149.227 80ZM148.239 52.5568H185.602V64.0795H148.239V52.5568Z" fill="#FF00F5"/>
<path d="M66.4574 83.75H56.5028C56.321 82.4621 55.9498 81.3182 55.3892 80.3182C54.8286 79.303 54.1089 78.4394 53.2301 77.7273C52.3513 77.0151 51.3362 76.4697 50.1847 76.0909C49.0483 75.7121 47.8134 75.5227 46.4801 75.5227C44.071 75.5227 41.9725 76.1212 40.1847 77.3182C38.3968 78.5 37.0104 80.2273 36.0256 82.5C35.0407 84.7576 34.5483 87.5 34.5483 90.7273C34.5483 94.0455 35.0407 96.8333 36.0256 99.0909C37.0256 101.348 38.4195 103.053 40.2074 104.205C41.9953 105.356 44.0634 105.932 46.4119 105.932C47.7301 105.932 48.9498 105.758 50.071 105.409C51.2074 105.061 52.215 104.553 53.0938 103.886C53.9725 103.205 54.6998 102.379 55.2756 101.409C55.8665 100.439 56.2756 99.3333 56.5028 98.0909L66.4574 98.1364C66.1998 100.273 65.5559 102.333 64.5256 104.318C63.5104 106.288 62.1392 108.053 60.4119 109.614C58.6998 111.159 56.6544 112.386 54.2756 113.295C51.9119 114.189 49.2377 114.636 46.2528 114.636C42.1013 114.636 38.3892 113.697 35.1165 111.818C31.8589 109.939 29.2831 107.22 27.3892 103.659C25.5104 100.098 24.571 95.7879 24.571 90.7273C24.571 85.6515 25.5256 81.3333 27.4347 77.7727C29.3438 74.2121 31.9347 71.5 35.2074 69.6364C38.4801 67.7576 42.1619 66.8182 46.2528 66.8182C48.9498 66.8182 51.4498 67.197 53.7528 67.9545C56.071 68.7121 58.1241 69.8182 59.9119 71.2727C61.6998 72.7121 63.1544 74.4773 64.2756 76.5682C65.4119 78.6591 66.1392 81.053 66.4574 83.75ZM89.1051 114.682C85.5748 114.682 82.5218 113.932 79.946 112.432C77.3854 110.917 75.4081 108.811 74.0142 106.114C72.6203 103.402 71.9233 100.258 71.9233 96.6818C71.9233 93.0758 72.6203 89.9242 74.0142 87.2273C75.4081 84.5152 77.3854 82.4091 79.946 80.9091C82.5218 79.3939 85.5748 78.6364 89.1051 78.6364C92.6354 78.6364 95.6809 79.3939 98.2415 80.9091C100.817 82.4091 102.802 84.5152 104.196 87.2273C105.59 89.9242 106.287 93.0758 106.287 96.6818C106.287 100.258 105.59 103.402 104.196 106.114C102.802 108.811 100.817 110.917 98.2415 112.432C95.6809 113.932 92.6354 114.682 89.1051 114.682ZM89.1506 107.182C90.7566 107.182 92.0975 106.727 93.1733 105.818C94.2491 104.894 95.0597 103.636 95.6051 102.045C96.1657 100.455 96.446 98.6439 96.446 96.6136C96.446 94.5833 96.1657 92.7727 95.6051 91.1818C95.0597 89.5909 94.2491 88.3333 93.1733 87.4091C92.0975 86.4848 90.7566 86.0227 89.1506 86.0227C87.5294 86.0227 86.1657 86.4848 85.0597 87.4091C83.9688 88.3333 83.143 89.5909 82.5824 91.1818C82.0369 92.7727 81.7642 94.5833 81.7642 96.6136C81.7642 98.6439 82.0369 100.455 82.5824 102.045C83.143 103.636 83.9688 104.894 85.0597 105.818C86.1657 106.727 87.5294 107.182 89.1506 107.182ZM125.446 114.568C122.795 114.568 120.393 113.886 118.241 112.523C116.105 111.144 114.408 109.121 113.151 106.455C111.908 103.773 111.287 100.485 111.287 96.5909C111.287 92.5909 111.931 89.2652 113.219 86.6136C114.507 83.947 116.219 81.9545 118.355 80.6364C120.507 79.303 122.863 78.6364 125.423 78.6364C127.378 78.6364 129.007 78.9697 130.31 79.6364C131.628 80.2879 132.688 81.1061 133.491 82.0909C134.31 83.0606 134.931 84.0152 135.355 84.9545H135.651V67.4545H145.31V114H135.764V108.409H135.355C134.901 109.379 134.257 110.341 133.423 111.295C132.605 112.235 131.537 113.015 130.219 113.636C128.916 114.258 127.325 114.568 125.446 114.568ZM128.514 106.864C130.075 106.864 131.393 106.439 132.469 105.591C133.56 104.727 134.393 103.523 134.969 101.977C135.56 100.432 135.855 98.6212 135.855 96.5455C135.855 94.4697 135.567 92.6667 134.991 91.1364C134.416 89.6061 133.582 88.4242 132.491 87.5909C131.401 86.7576 130.075 86.3409 128.514 86.3409C126.923 86.3409 125.582 86.7727 124.491 87.6364C123.401 88.5 122.575 89.697 122.014 91.2273C121.454 92.7576 121.173 94.5303 121.173 96.5455C121.173 98.5758 121.454 100.371 122.014 101.932C122.59 103.477 123.416 104.689 124.491 105.568C125.582 106.432 126.923 106.864 128.514 106.864ZM169.179 114.682C165.588 114.682 162.497 113.955 159.906 112.5C157.33 111.03 155.346 108.955 153.952 106.273C152.558 103.576 151.861 100.386 151.861 96.7045C151.861 93.1136 152.558 89.9621 153.952 87.25C155.346 84.5379 157.308 82.4242 159.838 80.9091C162.384 79.3939 165.368 78.6364 168.793 78.6364C171.096 78.6364 173.24 79.0076 175.224 79.75C177.224 80.4773 178.967 81.5758 180.452 83.0455C181.952 84.5152 183.118 86.3636 183.952 88.5909C184.785 90.803 185.202 93.3939 185.202 96.3636V99.0227H155.724V93.0227H176.088C176.088 91.6288 175.785 90.3939 175.179 89.3182C174.573 88.2424 173.732 87.4015 172.656 86.7955C171.596 86.1742 170.361 85.8636 168.952 85.8636C167.482 85.8636 166.179 86.2045 165.043 86.8864C163.921 87.553 163.043 88.4545 162.406 89.5909C161.77 90.7121 161.444 91.9621 161.429 93.3409V99.0455C161.429 100.773 161.747 102.265 162.384 103.523C163.035 104.78 163.952 105.75 165.134 106.432C166.315 107.114 167.717 107.455 169.338 107.455C170.414 107.455 171.399 107.303 172.293 107C173.187 106.697 173.952 106.242 174.588 105.636C175.224 105.03 175.709 104.288 176.043 103.409L184.997 104C184.543 106.152 183.611 108.03 182.202 109.636C180.808 111.227 179.005 112.47 176.793 113.364C174.596 114.242 172.058 114.682 169.179 114.682Z" fill="white"/>
</svg>
